
<svg height="400" version="1.1" viewBox="0 0 400 400" width="400" xmlns="http://www.w3.org/2000/svg" xmlns:xlink="http://www.w3.org/1999/xlink"><defs><g class="white bishop" fill="none" fill-rule="evenodd" id="white-bishop" stroke="#000" stroke-linecap="round" stroke-linejoin="round" stroke-width="1.5"><g fill="#fff" stroke-linecap="butt"><path d="M9 36c3.39-.97 10.11.43 13.5-2 3.39 2.43 10.11 1.03 13.5 2 0 0 1.65.54 3 2-.68.97-1.65.99-3 .5-3.39-.97-10.11.46-13.5-1-3.39 1.46-10.11.03-13.5 1-1.354.49-2.323.47-3-.5 1.354-1.94 3-2 3-2zM15 32c2.5 2.5 12.5 2.5 15 0 .5-1.5 0-2 0-2 0-2.5-2.5-4-2.5-4 5.5-1.5 6-11.5-5-15.5-11 4-10.5 14-5 15.5 0 0-2.5 1.5-2.5 4 0 0-.5.5 0 2zM25 8a2.5 2.5 0 1 1-5 0 2.5 2.5 0 1 1 5 0z" /></g><path d="M17.5 26h10M15 30h15m-7.5-14.5v5M20 18h5" stroke-linejoin="miter" /></g><g class="white king" fill="none" fill-rule="evenodd" id="white-king" stroke="#000" stroke-linecap="round" stroke-linejoin="round" stroke-width="1.5"><path d="M22.5 11.63V6M20 8h5" stroke-linejoin="miter" /><path d="M22.5 25s4.5-7.5 3-10.5c0 0-1-2.5-3-2.5s-3 2.5-3 2.5c-1.5 3 3 10.5 3 10.5" fill="#fff" stroke-linecap="butt" stroke-linejoin="miter" /><path d="M11.5 37c5.5 3.5 15.5 3.5 21 0v-7s9-4.5 6-10.5c-4-6.5-13.5-3.5-16 4V27v-3.5c-3.5-7.5-13-10.5-16-4-3 6 5 10 5 10V37z" fill="#fff" /><path d="M11.5 30c5.5-3 15.5-3 21 0m-21 3.5c5.5-3 15.5-3 21 0m-21 3.5c5.5-3 15.5-3 21 0" /></g><g class="black king" fill="none" fill-rule="evenodd" id="black-king" stroke="#000" stroke-linecap="round" stroke-linejoin="round" stroke-width="1.5"><path d="M22.5 11.63V6" stroke-linejoin="miter" /><path d="M22.5 25s4.5-7.5 3-10.5c0 0-1-2.5-3-2.5s-3 2.5-3 2.5c-1.5 3 3 10.5 3 10.5" fill="#000" stroke-linecap="butt" stroke-linejoin="miter" /><path d="M11.5 37c5.5 3.5 15.5 3.5 21 0v-7s9-4.5 6-10.5c-4-6.5-13.5-3.5-16 4V27v-3.5c-3.5-7.5-13-10.5-16-4-3 6 5 10 5 10V37z" fill="#000" /><path d="M20 8h5" stroke-linejoin="miter" /><path d="M32 29.5s8.5-4 6.03-9.65C34.15 14 25 18 22.5 24.5l.01 2.1-.01-2.1C20 18 9.906 14 6.997 19.85c-2.497 5.65 4.853 9 4.853 9M11.5 30c5.5-3 15.5-3 21 0m-21 3.5c5.5-3 15.5-3 21 0m-21 3.5c5.5-3 15.5-3 21 0" stroke="#fff" /></g></defs><rect class="square dark a1" fill="#d18b47" height="45" stroke="none" width="45" x="20" y="335" /><rect class="square light b1" fill="#ffce9e" height="45" stroke="none" width="45" x="65" y="335" /><rect class="square dark c1" fill="#d18b47" height="45" stroke="none" width="45" x="110" y="335" /><rect class="square light d1" fill="#ffce9e" height="45" stroke="none" width="45" x="155" y="335" /><rect class="square dark e1" fill="#d18b47" height="45" stroke="none" width="45" x="200" y="335" /><rect class="square light f1" fill="#ffce9e" height="45" stroke="none" width="45" x="245" y="335" /><rect class="square dark g1" fill="#d18b47" height="45" stroke="none" width="45" x="290" y="335" /><rect class="square light h1" fill="#ffce9e" height="45" stroke="none" width="45" x="335" y="335" /><rect class="square light a2" fill="#ffce9e" height="45" stroke="none" width="45" x="20" y="290" /><rect class="square dark b2" fill="#d18b47" height="45" stroke="none" width="45" x="65" y="290" /><rect class="square light c2" fill="#ffce9e" height="45" stroke="none" width="45" x="110" y="290" /><rect class="square dark d2" fill="#d18b47" height="45" stroke="none" width="45" x="155" y="290" /><rect class="square light e2" fill="#ffce9e" height="45" stroke="none" width="45" x="200" y="290" /><rect class="square dark f2" fill="#d18b47" height="45" stroke="none" width="45" x="245" y="290" /><rect class="square light g2" fill="#ffce9e" height="45" stroke="none" width="45" x="290" y="290" /><rect class="square dark h2" fill="#d18b47" height="45" stroke="none" width="45" x="335" y="290" /><rect class="square dark a3" fill="#d18b47" height="45" stroke="none" width="45" x="20" y="245" /><use transform="translate(20, 245)" xlink:href="#white-king" /><rect class="square light b3" fill="#ffce9e" height="45" stroke="none" width="45" x="65" y="245" /><rect class="square dark c3" fill="#d18b47" height="45" stroke="none" width="45" x="110" y="245" /><rect class="square light d3" fill="#ffce9e" height="45" stroke="none" width="45" x="155" y="245" /><rect class="square dark e3" fill="#d18b47" height="45" stroke="none" width="45" x="200" y="245" /><rect class="square light f3" fill="#ffce9e" height="45" stroke="none" width="45" x="245" y="245" /><rect class="square dark g3" fill="#d18b47" height="45" stroke="none" width="45" x="290" y="245" /><rect class="square light h3" fill="#ffce9e" height="45" stroke="none" width="45" x="335" y="245" /><rect class="square light a4" fill="#ffce9e" height="45" stroke="none" width="45" x="20" y="200" /><rect class="square dark b4" fill="#d18b47" height="45" stroke="none" width="45" x="65" y="200" /><rect class="square light c4" fill="#ffce9e" height="45" stroke="none" width="45" x="110" y="200" /><rect class="square dark d4" fill="#d18b47" height="45" stroke="none" width="45" x="155" y="200" /><rect class="square light e4" fill="#ffce9e" height="45" stroke="none" width="45" x="200" y="200" /><rect class="square dark f4" fill="#d18b47" height="45" stroke="none" width="45" x="245" y="200" /><use transform="translate(245, 200)" xlink:href="#white-bishop" /><rect class="square light g4" fill="#ffce9e" height="45" stroke="none" width="45" x="290" y="200" /><rect class="square dark h4" fill="#d18b47" height="45" stroke="none" width="45" x="335" y="200" /><rect class="square dark a5" fill="#d18b47" height="45" stroke="none" width="45" x="20" y="155" /><rect class="square light b5" fill="#ffce9e" height="45" stroke="none" width="45" x="65" y="155" /><rect class="square dark c5" fill="#d18b47" height="45" stroke="none" width="45" x="110" y="155" /><rect class="square light d5" fill="#ffce9e" height="45" stroke="none" width="45" x="155" y="155" /><rect class="square dark e5" fill="#d18b47" height="45" stroke="none" width="45" x="200" y="155" /><rect class="square light f5" fill="#ffce9e" height="45" stroke="none" width="45" x="245" y="155" /><rect class="square dark g5" fill="#d18b47" height="45" stroke="none" width="45" x="290" y="155" /><rect class="square light h5" fill="#ffce9e" height="45" stroke="none" width="45" x="335" y="155" /><rect class="square light a6" fill="#ffce9e" height="45" stroke="none" width="45" x="20" y="110" /><rect class="square dark b6" fill="#d18b47" height="45" stroke="none" width="45" x="65" y="110" /><rect class="square light c6" fill="#ffce9e" height="45" stroke="none" width="45" x="110" y="110" /><rect class="square dark d6" fill="#d18b47" height="45" stroke="none" width="45" x="155" y="110" /><rect class="square light e6" fill="#ffce9e" height="45" stroke="none" width="45" x="200" y="110" /><rect class="square dark f6" fill="#d18b47" height="45" stroke="none" width="45" x="245" y="110" /><rect class="square light g6" fill="#ffce9e" height="45" stroke="none" width="45" x="290" y="110" /><rect class="square dark h6" fill="#d18b47" height="45" stroke="none" width="45" x="335" y="110" /><rect class="square dark a7" fill="#d18b47" height="45" stroke="none" width="45" x="20" y="65" /><rect class="square light b7" fill="#ffce9e" height="45" stroke="none" width="45" x="65" y="65" /><rect class="square dark c7" fill="#d18b47" height="45" stroke="none" width="45" x="110" y="65" /><rect class="square light d7" fill="#ffce9e" height="45" stroke="none" width="45" x="155" y="65" /><rect class="square dark e7" fill="#d18b47" height="45" stroke="none" width="45" x="200" y="65" /><rect class="square light f7" fill="#ffce9e" height="45" stroke="none" width="45" x="245" y="65" /><rect class="square dark g7" fill="#d18b47" height="45" stroke="none" width="45" x="290" y="65" /><rect class="square light h7" fill="#ffce9e" height="45" stroke="none" width="45" x="335" y="65" /><rect class="square light a8" fill="#ffce9e" height="45" stroke="none" width="45" x="20" y="20" /><rect class="square dark b8" fill="#d18b47" height="45" stroke="none" width="45" x="65" y="20" /><rect class="square light c8" fill="#ffce9e" height="45" stroke="none" width="45" x="110" y="20" /><rect class="square dark d8" fill="#d18b47" height="45" stroke="none" width="45" x="155" y="20" /><rect class="square light e8" fill="#ffce9e" height="45" stroke="none" width="45" x="200" y="20" /><rect class="square dark f8" fill="#d18b47" height="45" stroke="none" width="45" x="245" y="20" /><rect class="square light lastmove g8" fill="#cdd16a" height="45" stroke="none" width="45" x="290" y="20" /><use transform="translate(290, 20)" xlink:href="#black-king" /><rect class="square dark lastmove h8" fill="#aaa23b" height="45" stroke="none" width="45" x="335" y="20" /><text alignment-baseline="middle" font-size="14" text-anchor="middle" x="42" y="10">a</text><text alignment-baseline="middle" font-size="14" text-anchor="middle" x="42" y="390">a</text><text alignment-baseline="middle" font-size="14" text-anchor="middle" x="87" y="10">b</text><text alignment-baseline="middle" font-size="14" text-anchor="middle" x="87" y="390">b</text><text alignment-baseline="middle" font-size="14" text-anchor="middle" x="132" y="10">c</text><text alignment-baseline="middle" font-size="14" text-anchor="middle" x="132" y="390">c</text><text alignment-baseline="middle" font-size="14" text-anchor="middle" x="177" y="10">d</text><text alignment-baseline="middle" font-size="14" text-anchor="middle" x="177" y="390">d</text><text alignment-baseline="middle" font-size="14" text-anchor="middle" x="222" y="10">e</text><text alignment-baseline="middle" font-size="14" text-anchor="middle" x="222" y="390">e</text><text alignment-baseline="middle" font-size="14" text-anchor="middle" x="267" y="10">f</text><text alignment-baseline="middle" font-size="14" text-anchor="middle" x="267" y="390">f</text><text alignment-baseline="middle" font-size="14" text-anchor="middle" x="312" y="10">g</text><text alignment-baseline="middle" font-size="14" text-anchor="middle" x="312" y="390">g</text><text alignment-baseline="middle" font-size="14" text-anchor="middle" x="357" y="10">h</text><text alignment-baseline="middle" font-size="14" text-anchor="middle" x="357" y="390">h</text><text alignment-baseline="middle" font-size="14" text-anchor="middle" x="10" y="357">1</text><text alignment-baseline="middle" font-size="14" text-anchor="middle" x="390" y="357">1</text><text alignment-baseline="middle" font-size="14" text-anchor="middle" x="10" y="312">2</text><text alignment-baseline="middle" font-size="14" text-anchor="middle" x="390" y="312">2</text><text alignment-baseline="middle" font-size="14" text-anchor="middle" x="10" y="267">3</text><text alignment-baseline="middle" font-size="14" text-anchor="middle" x="390" y="267">3</text><text alignment-baseline="middle" font-size="14" text-anchor="middle" x="10" y="222">4</text><text alignment-baseline="middle" font-size="14" text-anchor="middle" x="390" y="222">4</text><text alignment-baseline="middle" font-size="14" text-anchor="middle" x="10" y="177">5</text><text alignment-baseline="middle" font-size="14" text-anchor="middle" x="390" y="177">5</text><text alignment-baseline="middle" font-size="14" text-anchor="middle" x="10" y="132">6</text><text alignment-baseline="middle" font-size="14" text-anchor="middle" x="390" y="132">6</text><text alignment-baseline="middle" font-size="14" text-anchor="middle" x="10" y="87">7</text><text alignment-baseline="middle" font-size="14" text-anchor="middle" x="390" y="87">7</text><text alignment-baseline="middle" font-size="14" text-anchor="middle" x="10" y="42">8</text><text alignment-baseline="middle" font-size="14" text-anchor="middle" x="390" y="42">8</text></svg>